<svg xmlns="http://www.w3.org/2000/svg" viewBox="0 0 24 24" fill="none" stroke="currentColor" stroke-width="2" stroke-linecap="round" stroke-linejoin="round">
  <path fill="#FF9900" d="M18.75 11.35c0-.35.22-.89-.1-2.06-.32-1.17-1.05-2.13-1.85-2.91-.3-.29-.03-.74.34-.67 1.63.3 3.53 1.33 3.53 4.32 0 2.57-1.8 5.31-4.41 7.21-.25.18-.59-.02-.48-.32.72-1.74 1.13-3.45 1.13-5.5.01-.04.84-.07 1.84-.07zm-14.4-.09c0-.35-.22-.89.1-2.06.32-1.17 1.05-2.13 1.85-2.91.3-.29.03-.74-.34-.67-1.63.3-3.53 1.33-3.53 4.32 0 2.57 1.8 5.31 4.41 7.21.25.18.59-.02.48-.32-.72-1.74-1.13-3.45-1.13-5.5-.01-.04-.84-.07-1.84-.07z"/>
  <path fill="#FF9900" d="M14.62 13.47c.81 0 1.47.67 1.47 1.5s-.66 1.5-1.47 1.5c-.81 0-1.47-.67-1.47-1.5s.66-1.5 1.47-1.5zm-6.09 0c.81 0 1.47.67 1.47 1.5s-.66 1.5-1.47 1.5c-.81 0-1.47-.67-1.47-1.5s.66-1.5 1.47-1.5zm6.09-8.59c.81 0 1.47.67 1.47 1.5s-.66 1.5-1.47 1.5c-.81 0-1.47-.67-1.47-1.5s.66-1.5 1.47-1.5zm-6.09 0c.81 0 1.47.67 1.47 1.5s-.66 1.5-1.47 1.5c-.81 0-1.47-.67-1.47-1.5s.66-1.5 1.47-1.5z"/>
</svg> 