<svg xmlns="http://www.w3.org/2000/svg" viewBox="0 0 24 24" fill="none">
  <path fill="#0078D4" d="M11.3 5.3c-3.2 0-5.8 2.6-5.8 5.8 0 1.7.7 3.2 1.9 4.3-.9.4-1.7.8-2.4 1.4-1 .7-1.5 1.3-1.5 2.1 0 2 3.5 3.1 7.8 3.1s7.8-1.1 7.8-3.1c0-.8-.5-1.4-1.5-2.1-.7-.5-1.5-1-2.4-1.4 1.1-1.1 1.9-2.6 1.9-4.3 0-3.2-2.6-5.8-5.8-5.8zm0 1.5c2.4 0 4.3 1.9 4.3 4.3s-1.9 4.3-4.3 4.3-4.3-1.9-4.3-4.3 1.9-4.3 4.3-4.3zm0 10.2c3.9 0 6.3.9 6.3 1.6s-2.4 1.6-6.3 1.6-6.3-.9-6.3-1.6 2.4-1.6 6.3-1.6z"/>
  <path fill="#0078D4" d="M19 12h-4v-1h4c.6 0 1 .4 1 1v9c0 .6-.4 1-1 1H4c-.6 0-1-.4-1-1v-9c0-.6.4-1 1-1h4v1H4v9h15v-9z"/>
</svg> 