<svg xmlns="http://www.w3.org/2000/svg" viewBox="0 0 24 24" fill="none">
  <path fill="#EA4335" d="M12.19 4.737L5.252 16.389l2.789-0.273L12.19 4.737z"/>
  <path fill="#4285F4" d="M23.389 13.738c0.003-0.234-0.007-0.469-0.028-0.704A5.87 5.87 0 0017.498 8a5.87 5.87 0 00-5.308 3.362 4.31 4.31 0 00-2.956-1.172 4.32 4.32 0 00-4.318 4.318A4.32 4.32 0 009.234 18.9h8.264a5.872 5.872 0 005.891-5.162z"/>
  <path fill="#34A853" d="M12.19 4.737L15.17 10.25l-1.01 2.293L5.252 16.39 12.19 4.737z"/>
  <path fill="#FBBC05" d="M5.252 16.39l6.928-1.847 1.01-2.293 1.979-5.513L5.252 16.39z"/>
</svg> 