<svg xmlns="http://www.w3.org/2000/svg" viewBox="0 0 24 24" fill="none">
  <path fill="#D33833" d="M19.424 10.806c-.304-.395-.653-.748-1.035-.98l.536-.615-.846-.98-.845-.981-.807.27c-.556-.327-1.173-.557-1.825-.672l.04-.846-1.21-.499-1.231-.498-.557.615c-.538-.077-1.096-.077-1.634 0l-.558-.615-1.23.498-1.21.499.038.846a5.06 5.06 0 0 0-1.824.672l-.808-.27-.845.98-.845.981.536.615c-.383.232-.73.585-1.035.98l-.808-.27-.845.981-.846.981.576.692a5.89 5.89 0 0 0-.173 1.557c0 3.747 3.035 6.782 6.783 6.782 3.747 0 6.782-3.035 6.782-6.782 0-.539-.058-1.058-.173-1.557l.577-.692-.846-.98-.846-.981-.808.27Z"/>
  <path fill="#EF3D3A" d="M11.998 3.061c-6.782 0-10.76 3.401-10.76 5.2 0 .288.058.557.173.807l.577.692c-.096.5-.154 1.019-.154 1.557 0 3.747 3.035 6.782 6.782 6.782 3.747 0 6.782-3.035 6.782-6.782 0-.538-.058-1.057-.173-1.557l.577-.692c.115-.25.173-.519.173-.807 0-1.88-3.978-5.2-10.76-5.2Z"/>
  <path fill="#231F20" d="M12.285 7.039c-.538-.077-1.096-.077-1.634 0l-.558-.615-1.23.498-1.21.499.038.846a5.06 5.06 0 0 0-1.824.672l-.808-.27-.845.98-.845.981.536.615c-.383.232-.73.585-1.035.98l-.808-.27-.845.981-.846.981.577.692a5.89 5.89 0 0 0-.173 1.557c0 3.747 3.035 6.782 6.783 6.782 3.747 0 6.782-3.035 6.782-6.782 0-.539-.058-1.058-.173-1.557l.577-.692-.846-.98-.846-.981-.808.27c-.304-.395-.652-.748-1.035-.98l.536-.615-.846-.98-.845-.981-.807.27c-.557-.327-1.173-.557-1.825-.672l.04-.846-1.21-.499-1.231-.498-.557.615Z"/>
  <path fill="#F0D6B7" d="M13.6 15.371c0 .884-.711 1.596-1.598 1.596-.886 0-1.597-.712-1.597-1.596s.711-1.597 1.597-1.597c.887 0 1.598.713 1.598 1.597Zm-.826-.827a.775.775 0 0 0-1.096 0 .767.767 0 0 0-.227.553c0 .212.082.404.227.55a.775.775 0 0 0 1.096 0 .767.767 0 0 0 .228-.55.767.767 0 0 0-.228-.554Z"/>
</svg> 