<svg xmlns="http://www.w3.org/2000/svg" viewBox="0 0 628 628">
  <path fill="#326ce5" d="M317.24 30.56c-6.83.04-13.45 1.55-19.5 4.38l-220.1 124.04c-11.35 6.44-19.57 17.52-22.2 30.45l-46.74 236.5c-2.68 12.7.24 25.95 7.87 36.13l132.17 189.1c8.89 10.15 21.77 16.14 35.37 16.14h254.17c13.75 0 26.73-6.13 35.59-16.48l131.44-188.4c8.01-10.32 10.9-23.77 7.94-36.62l-46.74-234.03c-2.67-13.07-10.94-24.26-22.39-30.75L325.7 35.3a46.958 46.958 0 0 0-8.46-4.74 39.345 39.345 0 0 0 0 0 39.345 39.345 0 0 0-8.46-4.74 39.345 39.345 0 0 0 0 0 46.958 46.958 0 0 0-19.53-4.38 46.958 46.958 0 0 0 0 0 47.307 47.307 0 0 0 27.99 9.12Z"/>
  <path fill="#fff" d="M334.97 161.9c-66.67 0-120.73 54.06-120.73 120.73a120.04 120.04 0 0 0 6.2 37.92h-.33c3.71 12.05 11.03 19.77 20.19 19.77 11.98 0 21.69-14.06 21.69-31.41 0-7.35-1.69-14.11-4.47-19.49 9.67-6.32 26.35-10.52 46.14-10.52 34.53 0 62.53 14.35 62.53 32.06 0 17.71-27.99 32.06-62.53 32.06-8.34 0-16.33-.84-23.62-2.37-7.34 5.36-16.55 8.56-26.49 8.56-9.07 0-17.53-2.69-24.5-7.3v90.79h105.92V404h-23.44V375.6h23.44v-28.4h-23.44v-28.4h70.31c49.84 0 90.24-40.4 90.24-90.24 0-49.84-40.4-90.24-90.24-90.24h-46.88zm-67.77 85.7c-9.36 0-16.94-7.58-16.94-16.94a16.947 16.947 0 0 1 16.94-16.95c9.36 0 16.95 7.59 16.95 16.95s-7.59 16.94-16.95 16.94zm84.7 0c-9.36 0-16.94-7.58-16.94-16.94a16.947 16.947 0 0 1 16.94-16.95c9.37 0 16.95 7.59 16.95 16.95s-7.59 16.94-16.95 16.94z"/>
</svg> 