<svg xmlns="http://www.w3.org/2000/svg" viewBox="0 0 24 24" fill="none">
  <path fill="#E6522C" d="M12 3.5c-4.675 0-8.5 3.825-8.5 8.5 0 4.675 3.825 8.5 8.5 8.5 4.675 0 8.5-3.825 8.5-8.5 0-4.675-3.825-8.5-8.5-8.5zm-2.93 13.997h-1.41v-1.166h1.41v1.166zm9.11-.371c-.072.072-.154.13-.243.171-.089.04-.187.063-.289.063-.101 0-.2-.022-.289-.063-.089-.04-.171-.099-.243-.171-.072-.072-.13-.154-.171-.243-.04-.089-.063-.187-.063-.289 0-.101.022-.2.063-.289.04-.089.099-.171.171-.243.072-.072.154-.13.243-.171.089-.04.187-.063.289-.063.101 0 .2.022.289.063.089.04.171.099.243.171.072.072.13.154.171.243.04.089.063.187.063.289 0 .101-.022.2-.063.289-.04.089-.099.171-.171.243zm-.532-2.664h-1.41v-1.166h1.41v1.166zm-2.83 0h-1.41v-1.166h1.41v1.166zm-2.83 0h-1.41v-1.166h1.41v1.166zm-2.83 0h-1.41v-1.166h1.41v1.166zm8.49-2.83h-1.41v-1.166h1.41v1.166zm-2.83 0h-1.41v-1.166h1.41v1.166zm-2.83 0h-1.41v-1.166h1.41v1.166zm-2.83 0h-1.41v-1.166h1.41v1.166zm5.66-2.83h-1.41v-1.166h1.41v1.166zm-2.83 0h-1.41v-1.166h1.41v1.166z"/>
</svg> 