<svg xmlns="http://www.w3.org/2000/svg" viewBox="0 0 24 24" fill="none">
  <path fill="#E24329" d="M12 21.66L16.58 8.94h-9.16L12 21.66z"/>
  <path fill="#FC6D26" d="M12 21.66l-4.58-12.72H2.32L12 21.66z"/>
  <path fill="#FCA326" d="M2.32 8.94l-1.99 6.14c-.18.55 0 1.16.44 1.5L12 21.66 2.32 8.94z"/>
  <path fill="#E24329" d="M2.32 8.94h5.1L4.78 2.5c-.14-.41-.73-.41-.87 0L2.32 8.94z"/>
  <path fill="#FC6D26" d="M12 21.66l4.58-12.72h5.1L12 21.66z"/>
  <path fill="#FCA326" d="M21.68 8.94l1.99 6.14c.18.55 0 1.16-.44 1.5L12 21.66l9.68-12.72z"/>
  <path fill="#E24329" d="M21.68 8.94h-5.1l2.64-6.44c.14-.41.73-.41.87 0l1.59 6.44z"/>
</svg> 