<svg xmlns="http://www.w3.org/2000/svg" viewBox="0 0 24 24" fill="none">
  <path fill="#326CE5" d="M12 2.58l-1.86.65-6.01 2.16c-.59.21-1.06.67-1.28 1.27L1.1 14.58c-.12.3-.15.62-.09.93.06.31.2.59.4.82l5.15 6.18c.21.25.48.44.79.54.31.1.64.12.96.05l9.81-2.38c.32-.07.62-.24.86-.49l4.71-5.5c.21-.24.35-.54.4-.86.05-.32.01-.65-.11-.95L22.37 6.8c-.21-.59-.68-1.04-1.27-1.25l-7.25-2.33c-.6-.19-1.26-.19-1.85-.01V2.58z"/>
  <path fill="white" d="M12 6.91c-.35 0-.65.29-.65.65 0 .35.29.65.65.65.35 0 .65-.29.65-.65a.66.66 0 00-.65-.65z"/>
  <path fill="white" d="M15.11 11.18c.09-.13.03-.31-.13-.38-.16-.07-.36-.02-.45.11l-.4.6c-.09.13-.03.31.13.38.16.07.36.02.45-.11l.4-.6zm-6.79-.28c-.16-.07-.36-.02-.45.11l-.4.6c-.09.13-.03.31.13.38.16.07.36.02.45-.11l.4-.6c.09-.13.03-.31-.13-.38z"/>
  <path fill="white" d="M12 7.36c-2.52 0-4.55 2.03-4.55 4.55 0 2.52 2.03 4.55 4.55 4.55 2.52 0 4.55-2.03 4.55-4.55 0-2.52-2.03-4.55-4.55-4.55zm0 8.18c-2.01 0-3.64-1.63-3.64-3.64 0-2.01 1.63-3.64 3.64-3.64 2.01 0 3.64 1.63 3.64 3.64 0 2.01-1.63 3.64-3.64 3.64z"/>
</svg> 